<svg xmlns="http://www.w3.org/2000/svg" width="11.158" height="9.763" viewBox="0 0 11.158 9.763">
  <path id="comment-dots" d="M5.579,32C2.5,32,0,34.029,0,36.533a4.023,4.023,0,0,0,1.242,2.848A5.544,5.544,0,0,1,.048,41.469a.173.173,0,0,0-.033.19.171.171,0,0,0,.159.1,4.984,4.984,0,0,0,3.064-1.12,6.646,6.646,0,0,0,2.34.423c3.081,0,5.579-2.029,5.579-4.533S8.66,32,5.579,32ZM2.789,37.23a.7.7,0,1,1,.7-.7A.7.7,0,0,1,2.789,37.23Zm2.789,0a.7.7,0,1,1,.7-.7A.7.7,0,0,1,5.579,37.23Zm2.789,0a.7.7,0,1,1,.7-.7A.7.7,0,0,1,8.368,37.23Z" transform="translate(0 -32)" fill="#5c3ec2"/>
</svg>
