<svg xmlns="http://www.w3.org/2000/svg" width="16.874" height="22.499" viewBox="0 0 16.874 22.499">
  <path id="clipboard" d="M14.765,2.812H11.25a2.812,2.812,0,1,0-5.625,0H2.109A2.11,2.11,0,0,0,0,4.922V20.39A2.11,2.11,0,0,0,2.109,22.5H14.765a2.11,2.11,0,0,0,2.109-2.109V4.922A2.11,2.11,0,0,0,14.765,2.812ZM8.437,1.758A1.055,1.055,0,1,1,7.383,2.812,1.052,1.052,0,0,1,8.437,1.758Zm6.328,18.368a.264.264,0,0,1-.264.264H2.373a.264.264,0,0,1-.264-.264V5.185a.264.264,0,0,1,.264-.264H4.219V6.5a.529.529,0,0,0,.527.527h7.383a.529.529,0,0,0,.527-.527V4.922H14.5a.264.264,0,0,1,.264.264Z" fill="#1b1c1d"/>
</svg>
