<svg xmlns="http://www.w3.org/2000/svg" width="12.632" height="9.742" viewBox="0 0 12.632 9.742">
  <path id="_Color" data-name=" ↳Color" d="M6.316,9.742A6.209,6.209,0,0,1,2.454,8.376,7.608,7.608,0,0,1,0,4.871a7.607,7.607,0,0,1,2.454-3.5,6.141,6.141,0,0,1,7.724,0,7.608,7.608,0,0,1,2.454,3.5,7.608,7.608,0,0,1-2.454,3.505A6.209,6.209,0,0,1,6.316,9.742Zm0-8.119A3.08,3.08,0,0,0,3.445,4.871,3.08,3.08,0,0,0,6.316,8.119,3.08,3.08,0,0,0,9.187,4.871,3.08,3.08,0,0,0,6.316,1.624Zm0,5.2A1.848,1.848,0,0,1,4.594,4.871,1.848,1.848,0,0,1,6.316,2.923,1.848,1.848,0,0,1,8.039,4.871,1.848,1.848,0,0,1,6.316,6.82Z" fill="#5c3ec2"/>
</svg>
